# xmcd
#
# Track frame offsets: 
#        150
#        16761
#        32100
#        48544
#        71641
#        100659
#        120326
#        140465
#        166352
#
# Disc length: 2617 seconds
#
# Revision: 0
# Processed by: cddbd v1.5.2PL0 Copyright (c) Steve Scherf et al.
# Submitted via: ExactAudioCopy v0.95b3
#
DISCID=6f0a3709
DTITLE=The Guess Who  - Power In The Music - 1975
DYEAR=1900
DGENRE=
TTITLE0=Down And Out Woman
TTITLE1=Women
TTITLE2=When The Band Was Singin' (Shakin All Over)
TTITLE3=Dreams
TTITLE4=Rich World Poor World
TTITLE5=Rosanne
TTITLE6=Coors For Sunday
TTITLE7=Shopping Bag Lady
TTITLE8=Power In The Music
EXTD=
EXTT0=
EXTT1=
EXTT2=
EXTT3=
EXTT4=
EXTT5=
EXTT6=
EXTT7=
EXTT8=
PLAYORDER=
